<?xml version="1.0" encoding="utf-8"?>
<!-- Generator: Adobe Illustrator 19.2.1, SVG Export Plug-In . SVG Version: 6.00 Build 0)  -->
<svg version="1.1" id="B-LOGO-LP-Signature-160x70.AI"
	 xmlns="http://www.w3.org/2000/svg" xmlns:xlink="http://www.w3.org/1999/xlink" x="0px" y="0px" width="160px" height="70px"
	 viewBox="0 0 160 70" style="enable-background:new 0 0 160 70;" xml:space="preserve">
<style type="text/css">
	.st0{fill:#FFFFFF;}
	.st1{fill:#8296A0;}
	.st2{fill-rule:evenodd;clip-rule:evenodd;fill:#FFFFFF;}
	.st3{fill-rule:evenodd;clip-rule:evenodd;fill:#1EA0E6;}
	.st4{fill-rule:evenodd;clip-rule:evenodd;fill:#F03333;}
</style>
<g id="B-LOGO-LP-Signature-160x70">
	<rect id="Filet_1_" x="15" class="st0" width="130" height="42"/>
	<g>
		<path class="st1" d="M4.044,68V53.832H1.33v-2.208h7.774v2.208H6.39V68H4.044z"/>
		<path class="st1" d="M9.725,55.488c0-0.659,0.115-1.242,0.345-1.748s0.537-0.928,0.92-1.266c0.368-0.321,0.786-0.566,1.253-0.735
			s0.939-0.253,1.415-0.253c0.475,0,0.947,0.084,1.415,0.253s0.893,0.414,1.276,0.735c0.368,0.338,0.667,0.76,0.897,1.266
			s0.345,1.089,0.345,1.748v8.647c0,0.69-0.115,1.28-0.345,1.771c-0.23,0.49-0.529,0.896-0.897,1.219
			c-0.383,0.338-0.809,0.591-1.276,0.759c-0.468,0.169-0.939,0.253-1.415,0.253c-0.476,0-0.947-0.084-1.415-0.253
			c-0.468-0.168-0.885-0.421-1.253-0.759c-0.383-0.322-0.69-0.729-0.92-1.219c-0.23-0.491-0.345-1.081-0.345-1.771V55.488z
			 M12.071,64.136c0,0.567,0.157,0.985,0.472,1.254c0.314,0.269,0.686,0.402,1.115,0.402s0.801-0.134,1.116-0.402
			c0.314-0.269,0.471-0.687,0.471-1.254v-8.647c0-0.567-0.157-0.985-0.471-1.254c-0.314-0.268-0.687-0.402-1.116-0.402
			s-0.801,0.135-1.115,0.402c-0.314,0.269-0.472,0.687-0.472,1.254V64.136z"/>
		<path class="st1" d="M27.25,51.624V64.32c0,0.536-0.096,1.031-0.287,1.483c-0.192,0.452-0.464,0.854-0.817,1.207
			c-0.353,0.354-0.759,0.629-1.219,0.828s-0.951,0.299-1.472,0.299c-0.521,0-1.008-0.1-1.46-0.299
			c-0.453-0.199-0.855-0.475-1.208-0.828c-0.353-0.353-0.629-0.755-0.828-1.207s-0.299-0.947-0.299-1.483V51.624h2.346V64.09
			c0,0.583,0.138,1.012,0.414,1.288c0.276,0.276,0.621,0.414,1.035,0.414s0.759-0.138,1.035-0.414s0.414-0.705,0.414-1.288V51.624
			H27.25z"/>
		<path class="st1" d="M31,68V53.832h-2.714v-2.208h7.774v2.208h-2.714V68H31z"/>
		<path class="st1" d="M49.33,51.624L45.972,68h-2.07l-3.335-16.376h2.484l1.863,11.431h0.046l1.886-11.431H49.33z"/>
		<path class="st1" d="M50.595,55.488c0-0.659,0.115-1.242,0.345-1.748s0.537-0.928,0.92-1.266c0.368-0.321,0.786-0.566,1.253-0.735
			s0.939-0.253,1.415-0.253c0.475,0,0.947,0.084,1.415,0.253s0.893,0.414,1.276,0.735c0.368,0.338,0.667,0.76,0.897,1.266
			s0.345,1.089,0.345,1.748v8.647c0,0.69-0.115,1.28-0.345,1.771c-0.23,0.49-0.529,0.896-0.897,1.219
			c-0.383,0.338-0.809,0.591-1.276,0.759c-0.468,0.169-0.939,0.253-1.415,0.253c-0.476,0-0.947-0.084-1.415-0.253
			c-0.468-0.168-0.885-0.421-1.253-0.759c-0.383-0.322-0.69-0.729-0.92-1.219c-0.23-0.491-0.345-1.081-0.345-1.771V55.488z
			 M52.941,64.136c0,0.567,0.157,0.985,0.472,1.254c0.314,0.269,0.686,0.402,1.115,0.402s0.801-0.134,1.116-0.402
			c0.314-0.269,0.471-0.687,0.471-1.254v-8.647c0-0.567-0.157-0.985-0.471-1.254c-0.314-0.268-0.687-0.402-1.116-0.402
			s-0.801,0.135-1.115,0.402c-0.314,0.269-0.472,0.687-0.472,1.254V64.136z"/>
		<path class="st1" d="M68.121,51.624V64.32c0,0.536-0.096,1.031-0.287,1.483c-0.192,0.452-0.464,0.854-0.817,1.207
			c-0.353,0.354-0.759,0.629-1.219,0.828s-0.951,0.299-1.472,0.299c-0.521,0-1.008-0.1-1.46-0.299
			c-0.453-0.199-0.855-0.475-1.208-0.828c-0.353-0.353-0.629-0.755-0.828-1.207s-0.299-0.947-0.299-1.483V51.624h2.346V64.09
			c0,0.583,0.138,1.012,0.414,1.288c0.276,0.276,0.621,0.414,1.035,0.414s0.759-0.138,1.035-0.414s0.414-0.705,0.414-1.288V51.624
			H68.121z"/>
		<path class="st1" d="M77.918,56.339h-2.346V55.81c0-0.536-0.126-1-0.38-1.391c-0.253-0.392-0.678-0.587-1.276-0.587
			c-0.322,0-0.583,0.062-0.782,0.184c-0.2,0.123-0.361,0.276-0.483,0.46c-0.123,0.2-0.207,0.426-0.253,0.679
			c-0.046,0.253-0.069,0.518-0.069,0.794c0,0.321,0.012,0.59,0.035,0.805s0.081,0.406,0.172,0.575s0.226,0.314,0.402,0.437
			c0.176,0.123,0.418,0.246,0.725,0.368l1.794,0.713c0.521,0.2,0.943,0.434,1.265,0.702c0.322,0.269,0.575,0.578,0.759,0.931
			c0.169,0.368,0.284,0.786,0.345,1.254c0.061,0.468,0.092,1.001,0.092,1.599c0,0.69-0.069,1.33-0.207,1.921
			c-0.138,0.59-0.36,1.092-0.667,1.506c-0.322,0.43-0.744,0.768-1.265,1.012c-0.521,0.245-1.158,0.368-1.909,0.368
			c-0.567,0-1.097-0.1-1.587-0.299c-0.491-0.199-0.913-0.475-1.265-0.828c-0.353-0.353-0.632-0.763-0.839-1.23
			s-0.311-0.978-0.311-1.529v-0.874h2.346v0.736c0,0.429,0.126,0.816,0.379,1.161s0.678,0.518,1.276,0.518
			c0.398,0,0.709-0.058,0.932-0.173c0.222-0.114,0.395-0.279,0.518-0.494c0.123-0.215,0.195-0.472,0.218-0.771
			s0.035-0.633,0.035-1.001c0-0.429-0.016-0.781-0.046-1.058s-0.092-0.498-0.184-0.667c-0.107-0.168-0.25-0.307-0.426-0.414
			s-0.41-0.222-0.701-0.345l-1.679-0.69c-1.012-0.414-1.69-0.962-2.036-1.645c-0.345-0.682-0.518-1.537-0.518-2.564
			c0-0.613,0.084-1.195,0.253-1.748c0.168-0.552,0.421-1.026,0.759-1.426c0.322-0.398,0.732-0.717,1.23-0.954
			c0.498-0.238,1.093-0.356,1.783-0.356c0.583,0,1.115,0.107,1.598,0.321c0.483,0.215,0.901,0.499,1.254,0.852
			c0.705,0.735,1.058,1.579,1.058,2.53V56.339z"/>
		<path class="st1" d="M91.396,63.331v1.012c0,0.506-0.096,0.985-0.287,1.438c-0.193,0.453-0.457,0.855-0.795,1.208
			c-0.336,0.353-0.732,0.632-1.184,0.839c-0.453,0.207-0.939,0.311-1.461,0.311c-0.445,0-0.896-0.062-1.357-0.184
			c-0.459-0.123-0.873-0.337-1.241-0.645c-0.368-0.306-0.671-0.701-0.909-1.184c-0.238-0.483-0.356-1.101-0.356-1.852v-9.017
			c0-0.536,0.092-1.035,0.276-1.495c0.184-0.46,0.444-0.858,0.782-1.195c0.337-0.338,0.739-0.602,1.208-0.794
			c0.467-0.191,0.984-0.287,1.553-0.287c1.104,0,2,0.36,2.689,1.081c0.338,0.353,0.602,0.771,0.795,1.253
			c0.191,0.483,0.287,1.009,0.287,1.576v0.92h-2.346v-0.782c0-0.46-0.131-0.858-0.391-1.196c-0.262-0.337-0.615-0.506-1.059-0.506
			c-0.584,0-0.971,0.181-1.162,0.54c-0.191,0.361-0.287,0.817-0.287,1.369v8.372c0,0.476,0.104,0.874,0.311,1.195
			c0.207,0.322,0.578,0.483,1.115,0.483c0.152,0,0.318-0.026,0.494-0.08s0.342-0.142,0.494-0.265
			c0.139-0.123,0.254-0.291,0.346-0.506s0.139-0.483,0.139-0.806v-0.805H91.396z"/>
		<path class="st1" d="M93.168,55.488c0-0.659,0.115-1.242,0.345-1.748c0.23-0.506,0.537-0.928,0.921-1.266
			c0.367-0.321,0.785-0.566,1.253-0.735s0.939-0.253,1.415-0.253c0.475,0,0.946,0.084,1.414,0.253s0.894,0.414,1.276,0.735
			c0.368,0.338,0.667,0.76,0.897,1.266c0.229,0.506,0.345,1.089,0.345,1.748v8.647c0,0.69-0.115,1.28-0.345,1.771
			c-0.23,0.49-0.529,0.896-0.897,1.219c-0.383,0.338-0.809,0.591-1.276,0.759c-0.468,0.169-0.939,0.253-1.414,0.253
			c-0.476,0-0.947-0.084-1.415-0.253c-0.468-0.168-0.886-0.421-1.253-0.759c-0.384-0.322-0.69-0.729-0.921-1.219
			c-0.229-0.491-0.345-1.081-0.345-1.771V55.488z M95.514,64.136c0,0.567,0.157,0.985,0.472,1.254s0.687,0.402,1.116,0.402
			c0.429,0,0.801-0.134,1.115-0.402c0.313-0.269,0.472-0.687,0.472-1.254v-8.647c0-0.567-0.158-0.985-0.472-1.254
			c-0.314-0.268-0.687-0.402-1.115-0.402c-0.43,0-0.802,0.135-1.116,0.402c-0.314,0.269-0.472,0.687-0.472,1.254V64.136z"/>
		<path class="st1" d="M103.012,68V51.624h2.254l3.542,9.867h0.046v-9.867h2.347V68h-2.208l-3.588-9.844h-0.046V68H103.012z"/>
		<path class="st1" d="M120.768,63.331v1.012c0,0.506-0.096,0.985-0.287,1.438c-0.192,0.453-0.456,0.855-0.794,1.208
			c-0.337,0.353-0.732,0.632-1.185,0.839s-0.938,0.311-1.46,0.311c-0.445,0-0.897-0.062-1.357-0.184
			c-0.46-0.123-0.874-0.337-1.241-0.645c-0.368-0.306-0.672-0.701-0.909-1.184c-0.237-0.483-0.356-1.101-0.356-1.852v-9.017
			c0-0.536,0.092-1.035,0.276-1.495c0.184-0.46,0.444-0.858,0.782-1.195c0.337-0.338,0.739-0.602,1.207-0.794
			c0.468-0.191,0.985-0.287,1.553-0.287c1.104,0,2.001,0.36,2.69,1.081c0.338,0.353,0.602,0.771,0.794,1.253
			c0.191,0.483,0.287,1.009,0.287,1.576v0.92h-2.346v-0.782c0-0.46-0.131-0.858-0.391-1.196c-0.262-0.337-0.614-0.506-1.059-0.506
			c-0.583,0-0.97,0.181-1.161,0.54c-0.192,0.361-0.288,0.817-0.288,1.369v8.372c0,0.476,0.104,0.874,0.311,1.195
			c0.207,0.322,0.579,0.483,1.116,0.483c0.152,0,0.317-0.026,0.494-0.08c0.176-0.054,0.341-0.142,0.494-0.265
			c0.139-0.123,0.254-0.291,0.346-0.506s0.138-0.483,0.138-0.806v-0.805H120.768z"/>
		<path class="st1" d="M122.677,68V51.624h6.992v2.208h-4.646v4.807h4.048v2.208h-4.048v4.808h4.646V68H122.677z"/>
		<path class="st1" d="M131.187,68V51.624h3.772c2.76,0,4.14,1.603,4.14,4.807c0,0.967-0.149,1.787-0.448,2.461
			c-0.299,0.676-0.824,1.22-1.575,1.634l2.53,7.475h-2.484l-2.186-6.992h-1.402V68H131.187z M133.533,53.832v5.106h1.334
			c0.414,0,0.743-0.058,0.989-0.173c0.245-0.115,0.437-0.279,0.574-0.494c0.123-0.215,0.207-0.479,0.253-0.794
			c0.047-0.314,0.069-0.679,0.069-1.093s-0.022-0.777-0.069-1.092c-0.046-0.314-0.138-0.587-0.275-0.817
			c-0.292-0.429-0.844-0.644-1.656-0.644H133.533z"/>
		<path class="st1" d="M140.893,68V51.624h2.254l3.542,9.867h0.046v-9.867h2.347V68h-2.208l-3.588-9.844h-0.046V68H140.893z"/>
		<path class="st1" d="M151.196,68V51.624h6.992v2.208h-4.646v4.807h4.048v2.208h-4.048v4.808h4.646V68H151.196z"/>
	</g>
	<g id="E-LOGO-LP-128x40_1_">
		<rect id="Cartouche_blanc_4_" x="16" y="1" class="st2" width="128" height="40"/>
		<rect id="Cartouche_bleu_4_" x="16" y="1" class="st3" width="128" height="37"/>
		<rect id="Filet_rouge_5_" x="16" y="39" class="st4" width="128" height="2"/>
		<g id="Le_Parisien_4_">
			<polygon id="L_4_" class="st2" points="30,37 30,15 34,15 34,34 39,34 39,37 			"/>
			<path id="e_9_" class="st2" d="M45,36.975c0,0-0.204,0.125-0.75,0.125c-2.586,0-6.25-1.519-6.25-8.85
				c0-7.598,3.21-8.85,5.25-8.85c1.93,0,4.75,1.494,4.75,5.111c0,4.28-4.539,6.101-6.25,6.232c0.182,2.522,1.548,3.49,2.75,3.49
				c0.25,0,0.5,0,0.5,0V36.975z M41.5,28c1.226-0.064,3-1.523,3-3.792l0,0c0-1.524-0.489-2.208-1.25-2.208
				C42.279,22,41.5,23.06,41.5,28z"/>
			<path id="P_4_" class="st2" d="M65,16c0,7.998-7.5,10.891-9,11.315V37h-4V7h3.284C60.086,7,65,9.201,65,16z M60.5,16
				c0-4.52-2.5-5.606-4.5-5.606v13.135C56.5,23.413,60.5,21.409,60.5,16z"/>
			<path id="a_4_" class="st2" d="M74,36.972h-3.5v-1.302L69,37.125c-3.125,0.516-6-2.839-6-6.625c0-6.181,5.5-8.269,7-8.5v-0.507
				C70,20.334,69.105,20,68,20c-1.062,0-1.565,0.268-2.5,0.5v-3c0,0,1.13-0.625,3-0.625c3.23,0,5.5,1.256,5.5,5.66V36.972z M70,25
				c-0.55,0.085-3,1.753-3,5.5c0,2.394,1.027,3.5,1.749,3.5C69.387,34,70,33.213,70,32.75V25z"/>
			<path id="r_4_" class="st2" d="M83.5,20.5c-1.997,0-3.5,1.643-3.5,4V37h-4V17h4v1.5c0.5-0.502,1.46-1.5,3.5-1.5H84v3.5H83.5z"/>
			<path id="i_9_" class="st2" d="M85,15v-4h4v4H85z M89,37V17h-4v20H89L89,37z"/>
			<path id="s_4_" class="st2" d="M100,31.25c0,3.427-2.975,5.875-6.503,5.875c-1.531,0-2.683-0.201-3.747-0.625l1.5-3
				c0.595,0.27,1.184,0.353,1.865,0.353c1.317,0,2.385-0.91,2.385-2.103c0-1.386-0.559-2.401-2.088-4.134
				C90.778,25.114,90,23.79,90,21.75c0-2.81,2.52-4.875,5.75-4.875c1.486,0,2.358,0.067,3.25,0.375l-1.5,3
				C97.076,20.057,96.679,20,96,20c-0.935,0-1.653,0.692-1.653,1.5c0,0.77,0.34,1.534,2.04,3.113
				C98.852,26.845,100,28.441,100,31.25z"/>
			<path id="i_8_" class="st2" d="M101,15v-4h4v4H101z M105,17h-4v20h4V17z"/>
			<path id="e_8_" class="st2" d="M117,22.5c0,4.967-4.774,7.347-6.747,7.5c0.21,2.926,1.628,4,3.014,4c0.38,0,0.732,0,0.732,0v3
				c0,0-0.438,0.125-1.07,0.125c-2.979,0-6.93-1.618-6.93-10.125c0-8.816,3.647-10.125,6-10.125C114.226,16.875,117,18.304,117,22.5
				L117,22.5z M109.9,27c1.271-0.077,3.2-1.805,3.2-4.5c0-1.809-0.509-2.5-1.3-2.5C110.791,20,109.9,20.625,109.9,27z"/>
			<path id="n_4_" class="st0" d="M123,17c4.109-0.398,7,1.531,7,6.75V37h-4V22.5c0-1.39-1.022-2.5-2-2.5c-1.02,0-2,1.11-2,2.5V37
				h-4V17h4v1.005L123,17z"/>
		</g>
	</g>
</g>
</svg>
