<svg xmlns="http://www.w3.org/2000/svg" id="E-ACTU-Top3.AI" width="48" height="48" viewBox="0 0 48 48">
  <style>
    .st0{fill:url(#SVGID_1_);} .st1{fill:#141E28;}
  </style>
  <g id="E-ACTU-Top3">
    <linearGradient id="SVGID_1_" x1="40.9706" x2="7.0294" y1="40.9706" y2="7.0294" gradientUnits="userSpaceOnUse">
      <stop offset="0" stop-color="#96F"/>
      <stop offset=".0616" stop-color="#9E60EA"/>
      <stop offset=".2487" stop-color="#AC4FB0"/>
      <stop offset=".4294" stop-color="#B7417F"/>
      <stop offset=".5993" stop-color="#C03659"/>
      <stop offset=".756" stop-color="#C72E3E"/>
      <stop offset=".8943" stop-color="#CB2A2E"/>
      <stop offset="1" stop-color="#CC2828"/>
    </linearGradient>
    <path d="M24 1c12.682 0 23 10.318 23 23S36.682 47 24 47 1 36.682 1 24 11.318 1 24 1m0-1C10.745 0 0 10.745 0 24s10.745 24 24 24 24-10.745 24-24S37.255 0 24 0z" class="st0"/>
    <g>
      <path d="M22.818 12.9c4.104 0 6.182 1.625 6.182 4.872v2.227c0 2.044-.826 3.334-2.381 3.872 1.62.431 2.381 1.657 2.381 3.679v2.677c0 1.549-.608 2.748-1.633 3.598-1.026.85-2.716 1.274-4.627 1.274-1.912 0-3.74-.204-4.74-.613v-2.904c2 .495 2.819.742 4.157.742 1.34 0 2.451-.198 2.926-.597.476-.397.917-.983.917-1.757v-2.065c0-.839-.322-1.663-.732-2.082-.412-.42-1.209-.823-2.159-.823H21v-2h2.077c.928 0 1.769-.436 2.158-.888.389-.451.765-1.317.765-2.178v-1.936c0-.753-.409-1.328-.863-1.726-.454-.398-1.33-.597-2.679-.597-1.351 0-2.458.183-3.458.549v-2.872c1-.301 2.198-.452 3.818-.452z" class="st1"/>
    </g>
  </g>
</svg>
