<svg xmlns="http://www.w3.org/2000/svg" id="E-Placeholder.SVG" width="462" height="289" viewBox="0 0 462 289"><style type="text/css">  
	.st0{fill:#ECF2F4;}
	.st1{fill:#FFFFFF;}
	.st2{fill:#D2DCE1;}
	.st3{fill:none;stroke:#FFFFFF;stroke-miterlimit:10;}
</style><g id="E-Placeholder_1_"><rect id="Format_N2" class="st0" width="462" height="289"/><g id="E-LOGO-LP-202x64"><rect id="Cartouche_blanc_1_" x="130" y="113" class="st1" width="202" height="63.1"/><rect id="Cartouche_bleu_1_" x="130" y="113" class="st2" width="202" height="58"/><rect id="Filet_rouge_2_" x="130" y="173" class="st2" width="202" height="4"/><rect id="Filet_blanc_1_" x="129.5" y="112.5" class="st3" width="203" height="65"/><g id="Le_Parisien_2_"><polygon id="L_1_" class="st1" points="152.1 169 152 134 158 134 158 164 166 164 166 169 "/><path id="e_3_" class="st1" d="M176.6 164.4v4.3c0 0-1.1 0.2-2 0.2 -4.1 0-9.9-2.4-9.9-14 0-12 5.1-14 8.3-14 3 0 7.5 2.4 7.5 8.1 0 6.8-7.2 9.6-9.9 9.8 0.3 4 2.4 5.5 4.3 5.5C175.8 164.4 176.6 164.4 176.6 164.4zM170.2 154.5c2-0.1 4.9-2.4 4.9-6l0 0c0-2.4-0.8-3.5-2-3.5C171.4 145 170.2 146.7 170.2 154.5z"/><path id="P_1_" class="st1" d="M207.3 135.6c0 12.6-11 16.8-13.3 17.4v16h-7v-48h5C199.6 121 207.3 124.8 207.3 135.6zM200.2 135.6c0-7.1-3.2-8.8-6.3-8.8v20.7C194.7 147.3 200.2 144.1 200.2 135.6z"/><path id="a_1_" class="st1" d="M222 169h-6l0-2.4 -2.4 2.3c-4.9 0.8-9.5-4.5-9.5-10.5 0-9.8 8.7-13 11-13.4v-0.8c0-1.8-1.4-2.4-3.2-2.4 -1.7 0-2.5 0.4-3.9 0.8v-4.7c0 0 1.8-1 4.7-1 5.1 0 9.1 1.1 9.1 8V169zM215.2 149.8c-0.9 0.1-4.7 2.8-4.7 8.7 0 3.8 1.6 5.5 2.8 5.5 1 0 2-1.2 2-2L215.2 149.8 215.2 149.8z"/><path id="r_1_" class="st1" d="M236.5 142.7c-3.2 0-5.5 2.6-5.5 6.3v20h-6v-32h6v2.5c0.8-0.8 2.3-2.4 5.5-2.4h0.8v5.5L236.5 142.7 236.5 142.7z"/><path id="i_3_" class="st1" d="M239 134v-6h6v6H239zM245 169v-32h-6v32H245L245 169z"/><path id="s_3_" class="st1" d="M262.6 159.6c0 5.4-4.7 9.3-10.3 9.3 -2.4 0-4.2-0.3-5.9-1l2.4-4.7c0.9 0.4 1.9 0.6 2.9 0.6 2.1 0 3.8-1.4 3.8-3.3 0-2.2-0.9-3.8-3.3-6.5 -4.2-3.9-5.4-6-5.4-9.3 0-4.4 4-7.7 9.1-7.7 2.3 0 3.7 0.1 5.1 0.6l-2.4 4.7c-0.7-0.3-1.3-0.4-2.4-0.4 -1.5 0-2.6 1.1-2.6 2.4 0 1.2 0.5 2.4 3.2 4.9C260.8 152.7 262.6 155.2 262.6 159.6z"/><path id="i_2_" class="st1" d="M264 134v-6h6v6H264zM270 137h-6v32h6V137z"/><path id="e_2_" class="st1" d="M289.4 145.8c0 7.8-7.5 11.6-10.6 11.8 0.3 4.6 2.6 6.3 4.8 6.3 1 0 1.9 0 1.9 0v4.7c0 0-1.5 0.2-2.5 0.2 -4.7 0-10.9-2.6-10.9-16 0-13.9 5.8-16 9.5-16C285 137 289.4 139.2 289.4 145.8L289.4 145.8zM278.3 152.9c1.9-0.1 4.9-2.8 4.9-7.1 0-2.9-0.6-3.9-1.9-3.9C279.8 141.9 278.3 142.9 278.3 152.9z"/><path id="n_3_" class="st1" d="M298.9 137.2c6.5-0.6 11.1 2.6 11.1 10.8v21h-6v-23c0-2.2-2-4.1-3.6-4.1 -1.6 0-3.4 1.9-3.4 4.1v23h-6v-32h6v2L298.9 137.2z"/></g></g></g></svg>